<?xml version="1.0" encoding="utf-8"?>
<!-- Generator: Adobe Illustrator 16.0.0, SVG Export Plug-In . SVG Version: 6.00 Build 0)  -->
<!DOCTYPE svg PUBLIC "-//W3C//DTD SVG 1.1//EN" "http://www.w3.org/Graphics/SVG/1.1/DTD/svg11.dtd">
<svg version="1.1" id="Layer_1" xmlns="http://www.w3.org/2000/svg" xmlns:xlink="http://www.w3.org/1999/xlink" x="0px" y="0px"
	 width="150px" height="150px" viewBox="0 0 150 150" enable-background="new 0 0 150 150" xml:space="preserve"
	 preserveAspectRatio="xMinYMin meet">
<g id="Layer_1_1_" display="none">
	<rect x="37" y="48" display="inline" fill="#CCCCCC" width="65" height="65"/>
</g>
<g id="Layer_2">
	<path fill="none" stroke="#3D9970" stroke-width="3" stroke-linecap="square" stroke-linejoin="bevel" stroke-miterlimit="10" d="
		M60.069,3.193c0,0-15.428,32.073,2.051,77.913c5.928,15.545,20.019,67.065,20.019,67.065"/>
</g>
<g id="Layer_3" display="none">
	<path display="inline" fill="none" stroke="#1A421A" stroke-linecap="round" stroke-miterlimit="10" d="M76.783,116.71
		c-0.607-17.381,21.884-37.043,40.77-30.239"/>
	<path display="inline" fill="none" stroke="#1A421A" stroke-miterlimit="10" d="M76.783,116.71
		c6.964-7.985,6.505-28.97,40.77-30.239"/>
	<path display="inline" fill="none" stroke="#1A421A" stroke-width="0.25" stroke-miterlimit="10" d="M76.998,116.364
		c2.92-18.845,21.164-32.898,40.555-29.896"/>
	<path display="inline" fill="none" stroke="#1A421A" stroke-linecap="round" stroke-miterlimit="10" d="M56.953,72.584
		C56.398,62.241,42.021,51.76,31.176,56.789"/>
	<path display="inline" fill="none" stroke="#1A421A" stroke-miterlimit="10" d="M56.953,72.584
		c-4.551-4.371-5.383-16.844-25.777-15.795"/>
	<path display="inline" fill="none" stroke="#1A421A" stroke-width="0.25" stroke-miterlimit="10" d="M56.807,72.39
		c-2.723-11.025-14.286-18.403-25.631-15.601"/>
</g>
<g id="Layer_4">
	<g>
		<path fill="#3D9970" d="M139.643,65.974c-12.369,2.269-15.195,1.47-35.922,20.362c-18.949,17.278-28.105,43.234-26.697,45.813
			c2.569,4.676,15.925-18.283,34.373-40.405C125.018,75.404,139.643,65.974,139.643,65.974z"/>
		<path fill="#3D9970" d="M139.398,66.072c-0.318,0.063-0.937,0.184-1.83,0.36c-1.355,0.277-3.363,0.612-5.862,1.228
			c-2.495,0.616-5.438,1.693-8.493,3.542c-3.049,1.854-6.23,4.358-9.615,7.188c-3.373,2.84-6.92,6.082-10.601,9.539
			c-3.61,3.495-7.065,7.557-10.308,11.986c-3.228,4.443-6.207,9.301-8.813,14.443c-1.3,2.574-2.51,5.219-3.573,7.926
			c-1.037,2.693-2.049,5.506-2.465,8.249c-0.042,0.332-0.066,0.669-0.053,0.938c0.002,0.135,0.035,0.252,0.035,0.252l-0.006-0.007
			c-0.002,0.003-0.055-0.09-0.012-0.021l0.074,0.115c0.061,0.088,0.023,0.006,0.027,0.031c0.027,0.006-0.018,0.039,0.207-0.01
			c0.195-0.051,0.466-0.191,0.725-0.361c1.066-0.729,2.076-1.817,3.033-2.877c1.915-2.166,3.699-4.484,5.455-6.787
			c3.479-4.656,6.898-9.238,10.21-13.672c6.657-8.859,13.104-16.988,19.321-23.373c3.101-3.187,6.063-5.988,8.819-8.318
			c2.742-2.347,5.212-4.295,7.277-5.854C136.385,68.007,138.707,66.509,139.398,66.072z M139.669,66.016
			c0,0-2.487,1.594-6.548,4.789c-4.051,3.198-9.711,7.966-15.799,14.402c-6.098,6.423-12.441,14.604-19.078,23.459
			c-3.297,4.447-6.703,9.044-10.164,13.713c-1.756,2.316-3.535,4.648-5.479,6.864c-0.986,1.091-1.981,2.198-3.213,3.054
			c-0.313,0.205-0.645,0.396-1.019,0.499c-0.364,0.117-0.826,0.074-1.134-0.209c-0.307-0.271-0.447-0.677-0.446-1.06
			c-0.019-0.379,0.017-0.752,0.063-1.121c0.461-2.942,1.494-5.733,2.555-8.477c1.089-2.734,2.318-5.4,3.641-7.992
			c2.648-5.18,5.672-10.063,8.942-14.533c3.274-4.469,6.811-8.52,10.495-12.018c3.736-3.438,7.313-6.638,10.731-9.457
			c3.419-2.813,6.667-5.276,9.785-7.09c3.121-1.813,6.127-2.849,8.646-3.421c2.523-0.573,4.533-0.871,5.894-1.123l2.337-0.416
			L139.669,66.016z"/>
	</g>
	<g>
		<path fill="#3D9970" d="M11.889,33.389c1.053-1.592,17.479-1.601,33.418,20.518C61.244,76.027,60.92,78.346,59.87,79.936
			c-1.057,1.601-2.375,2.017-18.313-20.104C25.619,37.716,10.836,34.995,11.889,33.389z"/>
		<path fill="#3D9970" d="M11.851,33.357c-0.004,0.011,0.076-0.138,0.33-0.26c0.244-0.127,0.634-0.239,1.148-0.306
			c1.029-0.137,2.563-0.099,4.458,0.261c1.895,0.359,4.15,1.044,6.598,2.153c2.453,1.099,5.071,2.653,7.751,4.591
			c2.677,1.944,5.385,4.32,7.992,7.081c2.624,2.736,5.096,5.936,7.517,9.251c2.444,3.32,4.984,6.743,7.375,10.367
			c1.204,1.807,2.389,3.65,3.509,5.562c0.558,0.958,1.099,1.933,1.584,2.962c0.462,1.045,0.972,2.07,1.066,3.465
			c0.012,0.353-0.022,0.742-0.147,1.119c-0.124,0.379-0.32,0.705-0.496,0.953c-0.191,0.269-0.515,0.688-1.118,0.865
			c-0.604,0.156-1.075-0.027-1.405-0.172c-1.256-0.67-1.958-1.5-2.764-2.311c-1.528-1.643-2.893-3.354-4.234-5.065
			c-2.677-3.421-5.169-6.876-7.525-10.259c-2.363-3.39-4.587-6.654-6.985-9.552c-2.369-2.916-4.792-5.525-7.166-7.794
			c-4.746-4.555-9.375-7.574-12.68-9.504c-1.657-0.969-2.996-1.667-3.873-2.215c-0.436-0.275-0.765-0.513-0.922-0.755
			c-0.171-0.267,0.003-0.45-0.017-0.433L11.851,33.357z M11.931,33.417c0.017-0.002-0.118,0.106,0.02,0.323
			c0.136,0.209,0.459,0.447,0.894,0.714c0.874,0.537,2.22,1.225,3.887,2.183c3.338,1.896,7.968,4.926,12.817,9.405
			c2.426,2.231,4.91,4.806,7.347,7.691c2.464,2.865,4.772,6.119,7.19,9.447c2.43,3.322,4.961,6.741,7.64,10.131
			c1.344,1.689,2.719,3.382,4.217,4.966c0.759,0.771,1.531,1.587,2.479,2.076c0.237,0.105,0.498,0.18,0.729,0.111
			c0.23-0.066,0.414-0.26,0.563-0.479c0.325-0.436,0.506-0.938,0.477-1.476c-0.056-1.071-0.511-2.101-0.952-3.09
			c-0.458-0.992-0.981-1.954-1.523-2.901c-1.089-1.893-2.252-3.735-3.436-5.542c-2.37-3.613-4.81-7.098-7.193-10.453
			c-2.362-3.372-4.745-6.561-7.306-9.332c-2.539-2.787-5.188-5.194-7.814-7.173c-5.251-3.981-10.448-6.108-14.207-6.829
			c-1.881-0.372-3.403-0.419-4.417-0.292c-0.506,0.062-0.887,0.169-1.116,0.287C11.995,33.298,11.94,33.413,11.931,33.417z"/>
	</g>
</g>
</svg>
